<svg version="1.1" xmlns="http://www.w3.org/2000/svg" xmlns:xlink="http://www.w3.org/1999/xlink" width="652" height="492"><defs/><g><g transform="translate(-86,-158) scale(1,1)"><rect fill="#C0C0C0" stroke="none" x="223" y="175" width="512" height="472" opacity="0.2"/></g><g transform="translate(-86,-158) scale(1,1)"><rect fill="#ffffff" stroke="none" x="216" y="168" width="512" height="472"/></g><g transform="translate(-86,-158) scale(1,1)"><path fill="none" stroke="#000000" d="M 216 168 L 728 168 L 728 640 L 216 640 L 216 168 Z Z" stroke-miterlimit="10"/></g><g transform="translate(-86,-158) scale(1,1)"><g><path fill="none" stroke="none"/><text fill="#000000" stroke="none" font-family="Arial" font-size="13px" font-style="normal" font-weight="bold" text-decoration="none" x="415.28369140625" y="187.5">MAUJA Adventures</text></g></g><g transform="translate(-86,-158) scale(1,1)"><path fill="#ffffff" stroke="none" d="M 137.49162571022728 201.68 C 137.49162571022728 196.886167936 141.37746803517274 193 146.1708984375 193 C 150.96432883982726 193 154.85017116477272 196.886167936 154.85017116477272 201.68 C 154.85017116477272 206.47383206400002 150.96432883982726 210.36 146.1708984375 210.36 C 141.37746803517274 210.36 137.49162571022728 206.47383206400002 137.49162571022728 201.68 Z"/></g><g transform="translate(-86,-158) scale(1,1)"><path fill="none" stroke="#000000" d="M 137.49162571022728 201.68 C 137.49162571022728 196.886167936 141.37746803517274 193 146.1708984375 193 C 150.96432883982726 193 154.85017116477272 196.886167936 154.85017116477272 201.68 C 154.85017116477272 206.47383206400002 150.96432883982726 210.36 146.1708984375 210.36 C 141.37746803517274 210.36 137.49162571022728 206.47383206400002 137.49162571022728 201.68 Z" stroke-miterlimit="10"/></g><g transform="translate(-86,-158) scale(1,1)"><path fill="none" stroke="#000000" d="M 146.1708984375 210.36 L 146.1708984375 227.64" stroke-miterlimit="10"/></g><g transform="translate(-86,-158) scale(1,1)"><path fill="none" stroke="#000000" d="M 136.98108025568183 216.84 L 155.36071661931817 216.84" stroke-miterlimit="10"/></g><g transform="translate(-86,-158) scale(1,1)"><path fill="none" stroke="#000000" d="M 146.1708984375 227.64 L 133.40726207386365 245" stroke-miterlimit="10"/></g><g transform="translate(-86,-158) scale(1,1)"><path fill="none" stroke="#000000" d="M 146.1708984375 227.64 L 158.93453480113635 245" stroke-miterlimit="10"/></g><g transform="translate(-86,-158) scale(1,1)"><g><path fill="none" stroke="none"/><text fill="#000000" stroke="none" font-family="Arial" font-size="13px" font-style="normal" font-weight="bold" text-decoration="none" x="126.29638671875" y="265.5">Joueur</text></g></g><g transform="translate(-86,-158) scale(1,1)"><path fill="#ffffff" stroke="none" d="M 136.35661594460228 353.68 C 136.35661594460228 348.886167936 140.24245826954774 345 145.035888671875 345 C 149.82931907420226 345 153.71516139914772 348.886167936 153.71516139914772 353.68 C 153.71516139914772 358.473832064 149.82931907420226 362.36 145.035888671875 362.36 C 140.24245826954774 362.36 136.35661594460228 358.473832064 136.35661594460228 353.68 Z"/></g><g transform="translate(-86,-158) scale(1,1)"><path fill="none" stroke="#000000" d="M 136.35661594460228 353.68 C 136.35661594460228 348.886167936 140.24245826954774 345 145.035888671875 345 C 149.82931907420226 345 153.71516139914772 348.886167936 153.71516139914772 353.68 C 153.71516139914772 358.473832064 149.82931907420226 362.36 145.035888671875 362.36 C 140.24245826954774 362.36 136.35661594460228 358.473832064 136.35661594460228 353.68 Z" stroke-miterlimit="10"/></g><g transform="translate(-86,-158) scale(1,1)"><path fill="none" stroke="#000000" d="M 145.035888671875 362.36 L 145.035888671875 379.64" stroke-miterlimit="10"/></g><g transform="translate(-86,-158) scale(1,1)"><path fill="none" stroke="#000000" d="M 135.84607049005683 368.84 L 154.22570685369317 368.84" stroke-miterlimit="10"/></g><g transform="translate(-86,-158) scale(1,1)"><path fill="none" stroke="#000000" d="M 145.035888671875 379.64 L 132.27225230823865 397" stroke-miterlimit="10"/></g><g transform="translate(-86,-158) scale(1,1)"><path fill="none" stroke="#000000" d="M 145.035888671875 379.64 L 157.79952503551135 397" stroke-miterlimit="10"/></g><g transform="translate(-86,-158) scale(1,1)"><g><path fill="none" stroke="none"/><text fill="#000000" stroke="none" font-family="Arial" font-size="13px" font-style="normal" font-weight="bold" text-decoration="none" x="119.0263671875" y="417.5">Scripteur</text></g></g><g transform="translate(-86,-158) scale(1,1)"><path fill="none" stroke="#000000" d="M 145 343 L 146 272" stroke-miterlimit="10"/></g><g transform="translate(-86,-158) scale(1,1)"><path fill="#FFFFFF" stroke="none" d="M 154.1319564391542 292.4419002167533 L 146 272 L 137.29555527883454 292.2047678060446"/></g><g transform="translate(-86,-158) scale(1,1)"><path fill="none" stroke="#000000" d="M 154.1319564391542 292.4419002167533 L 146 272 L 137.29555527883454 292.2047678060446 L 154.1319564391542 292.4419002167533" stroke-miterlimit="10"/></g><g transform="translate(-86,-158) scale(1,1)"><path fill="#C0C0C0" stroke="none" d="M 335 240 C 335 230.6111584 362.0867696 223 395.5 223 C 428.9132304 223 456 230.6111584 456 240 C 456 249.3888416 428.9132304 257 395.5 257 C 362.0867696 257 335 249.3888416 335 240 Z" opacity="0.2"/></g><g transform="translate(-86,-158) scale(1,1)"><path fill="#ffffff" stroke="none" d="M 328 233 C 328 223.6111584 355.0867696 216 388.5 216 C 421.9132304 216 449 223.6111584 449 233 C 449 242.3888416 421.9132304 250 388.5 250 C 355.0867696 250 328 242.3888416 328 233 Z"/></g><g transform="translate(-86,-158) scale(1,1)"><path fill="none" stroke="#000000" d="M 328 233 C 328 223.6111584 355.0867696 216 388.5 216 C 421.9132304 216 449 223.6111584 449 233 C 449 242.3888416 421.9132304 250 388.5 250 C 355.0867696 250 328 242.3888416 328 233 Z" stroke-miterlimit="10"/></g><g transform="translate(-86,-158) scale(1,1)"><g><path fill="none" stroke="none"/><text fill="#000000" stroke="none" font-family="Arial" font-size="13px" font-style="normal" font-weight="bold" text-decoration="none" x="352.724609375" y="240">Jouer au jeu</text></g></g><g transform="translate(-86,-158) scale(1,1)"><path fill="#C0C0C0" stroke="none" d="M 319 352 C 319 342.6111584 347.4299152 335 382.5 335 C 417.5700848 335 446 342.6111584 446 352 C 446 361.3888416 417.5700848 369 382.5 369 C 347.4299152 369 319 361.3888416 319 352 Z" opacity="0.2"/></g><g transform="translate(-86,-158) scale(1,1)"><path fill="#ffffff" stroke="none" d="M 312 345 C 312 335.6111584 340.4299152 328 375.5 328 C 410.5700848 328 439 335.6111584 439 345 C 439 354.3888416 410.5700848 362 375.5 362 C 340.4299152 362 312 354.3888416 312 345 Z"/></g><g transform="translate(-86,-158) scale(1,1)"><path fill="none" stroke="#000000" d="M 312 345 C 312 335.6111584 340.4299152 328 375.5 328 C 410.5700848 328 439 335.6111584 439 345 C 439 354.3888416 410.5700848 362 375.5 362 C 340.4299152 362 312 354.3888416 312 345 Z" stroke-miterlimit="10"/></g><g transform="translate(-86,-158) scale(1,1)"><g><path fill="none" stroke="none"/><text fill="#000000" stroke="none" font-family="Arial" font-size="13px" font-style="normal" font-weight="bold" text-decoration="none" x="337.925048828125" y="352">Scripte le jeu</text></g></g><g transform="translate(-86,-158) scale(1,1)"><path fill="none" stroke="#000000" d="M 179 377 L 311 356" stroke-miterlimit="10"/></g><g transform="translate(-86,-158) scale(1,1)"><path fill="none" stroke="#000000" d="M 173 231 L 327 232" stroke-miterlimit="10"/></g><g transform="translate(-86,-158) scale(1,1)"><path fill="#C0C0C0" stroke="none" d="M 335 481 C 335 466.6405952 357.6096176 455 385.5 455 C 413.3903824 455 436 466.6405952 436 481 C 436 495.3594048 413.3903824 507 385.5 507 C 357.6096176 507 335 495.3594048 335 481 Z" opacity="0.2"/></g><g transform="translate(-86,-158) scale(1,1)"><path fill="#ffffff" stroke="none" d="M 328 474 C 328 459.6405952 350.6096176 448 378.5 448 C 406.3903824 448 429 459.6405952 429 474 C 429 488.3594048 406.3903824 500 378.5 500 C 350.6096176 500 328 488.3594048 328 474 Z"/></g><g transform="translate(-86,-158) scale(1,1)"><path fill="none" stroke="#000000" d="M 328 474 C 328 459.6405952 350.6096176 448 378.5 448 C 406.3903824 448 429 459.6405952 429 474 C 429 488.3594048 406.3903824 500 378.5 500 C 350.6096176 500 328 488.3594048 328 474 Z" stroke-miterlimit="10"/></g><g transform="translate(-86,-158) scale(1,1)"><g><path fill="none" stroke="none"/><text fill="#000000" stroke="none" font-family="Arial" font-size="13px" font-style="normal" font-weight="bold" text-decoration="none" x="349.9609375" y="474.5">Créer des</text><text fill="#000000" stroke="none" font-family="Arial" font-size="13px" font-style="normal" font-weight="bold" text-decoration="none" x="360.799560546875" y="487.5">cartes</text></g></g><g transform="translate(-86,-158) scale(1,1)"><path fill="#C0C0C0" stroke="none" d="M 465 481 C 465 466.6405952 488.2811904 455 517 455 C 545.7188096 455 569 466.6405952 569 481 C 569 495.3594048 545.7188096 507 517 507 C 488.2811904 507 465 495.3594048 465 481 Z" opacity="0.2"/></g><g transform="translate(-86,-158) scale(1,1)"><path fill="#ffffff" stroke="none" d="M 458 474 C 458 459.6405952 481.2811904 448 510 448 C 538.7188096 448 562 459.6405952 562 474 C 562 488.3594048 538.7188096 500 510 500 C 481.2811904 500 458 488.3594048 458 474 Z"/></g><g transform="translate(-86,-158) scale(1,1)"><path fill="none" stroke="#000000" d="M 458 474 C 458 459.6405952 481.2811904 448 510 448 C 538.7188096 448 562 459.6405952 562 474 C 562 488.3594048 538.7188096 500 510 500 C 481.2811904 500 458 488.3594048 458 474 Z" stroke-miterlimit="10"/></g><g transform="translate(-86,-158) scale(1,1)"><g><path fill="none" stroke="none"/><text fill="#000000" stroke="none" font-family="Arial" font-size="13px" font-style="normal" font-weight="bold" text-decoration="none" x="480.7373046875" y="474.5">Relier des</text><text fill="#000000" stroke="none" font-family="Arial" font-size="13px" font-style="normal" font-weight="bold" text-decoration="none" x="492.299560546875" y="487.5">cartes</text></g></g><g transform="translate(-86,-158) scale(1,1)"><path fill="#C0C0C0" stroke="none" d="M 598 481 C 598 466.6405952 623.0720512 455 654 455 C 684.9279488 455 710 466.6405952 710 481 C 710 495.3594048 684.9279488 507 654 507 C 623.0720512 507 598 495.3594048 598 481 Z" opacity="0.2"/></g><g transform="translate(-86,-158) scale(1,1)"><path fill="#ffffff" stroke="none" d="M 591 474 C 591 459.6405952 616.0720512 448 647 448 C 677.9279488 448 703 459.6405952 703 474 C 703 488.3594048 677.9279488 500 647 500 C 616.0720512 500 591 488.3594048 591 474 Z"/></g><g transform="translate(-86,-158) scale(1,1)"><path fill="none" stroke="#000000" d="M 591 474 C 591 459.6405952 616.0720512 448 647 448 C 677.9279488 448 703 459.6405952 703 474 C 703 488.3594048 677.9279488 500 647 500 C 616.0720512 500 591 488.3594048 591 474 Z" stroke-miterlimit="10"/></g><g transform="translate(-86,-158) scale(1,1)"><g><path fill="none" stroke="none"/><text fill="#000000" stroke="none" font-family="Arial" font-size="13px" font-style="normal" font-weight="bold" text-decoration="none" x="618.4609375" y="474.5">Créer des</text><text fill="#000000" stroke="none" font-family="Arial" font-size="13px" font-style="normal" font-weight="bold" text-decoration="none" x="619.181396484375" y="487.5">scénarios</text></g></g><g transform="translate(-86,-158) scale(1,1)"><path fill="#C0C0C0" stroke="none" d="M 319 578.5 C 319 558.8938896 356.6080768 543 403 543 C 449.3919232 543 487 558.8938896 487 578.5 C 487 598.1061104 449.3919232 614 403 614 C 356.6080768 614 319 598.1061104 319 578.5 Z" opacity="0.2"/></g><g transform="translate(-86,-158) scale(1,1)"><path fill="#ffffff" stroke="none" d="M 312 571.5 C 312 551.8938896 349.6080768 536 396 536 C 442.3919232 536 480 551.8938896 480 571.5 C 480 591.1061104 442.3919232 607 396 607 C 349.6080768 607 312 591.1061104 312 571.5 Z"/></g><g transform="translate(-86,-158) scale(1,1)"><path fill="none" stroke="#000000" d="M 312 571.5 C 312 551.8938896 349.6080768 536 396 536 C 442.3919232 536 480 551.8938896 480 571.5 C 480 591.1061104 442.3919232 607 396 607 C 349.6080768 607 312 591.1061104 312 571.5 Z" stroke-miterlimit="10"/></g><g transform="translate(-86,-158) scale(1,1)"><g><path fill="none" stroke="none"/><text fill="#000000" stroke="none" font-family="Arial" font-size="13px" font-style="normal" font-weight="bold" text-decoration="none" x="350.845947265625" y="565.5">Programmer de</text><text fill="#000000" stroke="none" font-family="Arial" font-size="13px" font-style="normal" font-weight="bold" text-decoration="none" x="368.536865234375" y="578.5">nouvelles</text><text fill="#000000" stroke="none" font-family="Arial" font-size="13px" font-style="normal" font-weight="bold" text-decoration="none" x="362.760498046875" y="591.5">interactions</text></g></g><g transform="translate(-86,-158) scale(1,1)"><path fill="#ffffff" stroke="none" d="M 134.44523899147728 521.6800000000001 C 134.44523899147728 516.8861679360001 138.33108131642274 513 143.12451171875 513 C 147.91794212107726 513 151.80378444602272 516.8861679360001 151.80378444602272 521.6800000000001 C 151.80378444602272 526.473832064 147.91794212107726 530.36 143.12451171875 530.36 C 138.33108131642274 530.36 134.44523899147728 526.473832064 134.44523899147728 521.6800000000001 Z"/></g><g transform="translate(-86,-158) scale(1,1)"><path fill="none" stroke="#000000" d="M 134.44523899147728 521.6800000000001 C 134.44523899147728 516.8861679360001 138.33108131642274 513 143.12451171875 513 C 147.91794212107726 513 151.80378444602272 516.8861679360001 151.80378444602272 521.6800000000001 C 151.80378444602272 526.473832064 147.91794212107726 530.36 143.12451171875 530.36 C 138.33108131642274 530.36 134.44523899147728 526.473832064 134.44523899147728 521.6800000000001 Z" stroke-miterlimit="10"/></g><g transform="translate(-86,-158) scale(1,1)"><path fill="none" stroke="#000000" d="M 143.12451171875 530.36 L 143.12451171875 547.64" stroke-miterlimit="10"/></g><g transform="translate(-86,-158) scale(1,1)"><path fill="none" stroke="#000000" d="M 133.93469353693183 536.84 L 152.31432990056817 536.84" stroke-miterlimit="10"/></g><g transform="translate(-86,-158) scale(1,1)"><path fill="none" stroke="#000000" d="M 143.12451171875 547.64 L 130.36087535511365 565" stroke-miterlimit="10"/></g><g transform="translate(-86,-158) scale(1,1)"><path fill="none" stroke="#000000" d="M 143.12451171875 547.64 L 155.88814808238635 565" stroke-miterlimit="10"/></g><g transform="translate(-86,-158) scale(1,1)"><g><path fill="none" stroke="none"/><text fill="#000000" stroke="none" font-family="Arial" font-size="13px" font-style="normal" font-weight="bold" text-decoration="none" x="103.391357421875" y="585.5">Programmeur</text></g></g><g transform="translate(-86,-158) scale(1,1)"><path fill="none" stroke="#000000" d="M 143 511 L 145 424" stroke-miterlimit="10"/></g><g transform="translate(-86,-158) scale(1,1)"><path fill="#FFFFFF" stroke="none" d="M 152.94968577997 444.5134710860874 L 145 424 L 136.1160622126725 444.1264912339656"/></g><g transform="translate(-86,-158) scale(1,1)"><path fill="none" stroke="#000000" d="M 152.94968577997 444.5134710860874 L 145 424 L 136.1160622126725 444.1264912339656 L 152.94968577997 444.5134710860874" stroke-miterlimit="10"/></g><g transform="translate(-86,-158) scale(1,1)"><path fill="none" stroke="#000000" d="M 377 447 L 375 363" stroke-miterlimit="10"/></g><g transform="translate(-86,-158) scale(1,1)"><path fill="#FFFFFF" stroke="none" d="M 383.9004499641751 383.11919457719955 L 375 363 L 367.06714960773036 383.5199874428292"/></g><g transform="translate(-86,-158) scale(1,1)"><path fill="none" stroke="#000000" d="M 383.9004499641751 383.11919457719955 L 375 363 L 367.06714960773036 383.5199874428292 L 383.9004499641751 383.11919457719955" stroke-miterlimit="10"/></g><g transform="translate(-86,-158) scale(1,1)"><path fill="none" stroke="#000000" d="M 511 447 L 512 408 L 376 408 L 375 363" stroke-miterlimit="10"/></g><g transform="translate(-86,-158) scale(1,1)"><path fill="#FFFFFF" stroke="none" d="M 383.8685204622835 383.1332894681932 L 375 363 L 367.03460544742126 383.50737646852343"/></g><g transform="translate(-86,-158) scale(1,1)"><path fill="none" stroke="#000000" d="M 383.8685204622835 383.1332894681932 L 375 363 L 367.03460544742126 383.50737646852343 L 383.8685204622835 383.1332894681932" stroke-miterlimit="10"/></g><g transform="translate(-86,-158) scale(1,1)"><path fill="none" stroke="#000000" d="M 647 447 L 648 408 L 376 408 L 375 363" stroke-miterlimit="10"/></g><g transform="translate(-86,-158) scale(1,1)"><path fill="#FFFFFF" stroke="none" d="M 383.8685204622835 383.1332894681932 L 375 363 L 367.03460544742126 383.50737646852343"/></g><g transform="translate(-86,-158) scale(1,1)"><path fill="none" stroke="#000000" d="M 383.8685204622835 383.1332894681932 L 375 363 L 367.03460544742126 383.50737646852343 L 383.8685204622835 383.1332894681932" stroke-miterlimit="10"/></g><g transform="translate(-86,-158) scale(1,1)"><path fill="none" stroke="#000000" d="M 191 555 L 311 564" stroke-miterlimit="10"/></g></g></svg>