<svg version="1.1" xmlns="http://www.w3.org/2000/svg" xmlns:xlink="http://www.w3.org/1999/xlink" width="961.578125" height="828"><defs/><g><g transform="translate(-6,-54) scale(1,1)"><rect fill="#C0C0C0" stroke="none" x="143" y="71" width="280" height="808" opacity="0.2"/></g><g transform="translate(-6,-54) scale(1,1)"><rect fill="#ffffff" stroke="none" x="136" y="64" width="280" height="808"/></g><g transform="translate(-6,-54) scale(1,1)"><path fill="none" stroke="#000000" d="M 136 64 L 416 64 L 416 872 L 136 872 L 136 64 Z Z" stroke-miterlimit="10"/></g><g transform="translate(-6,-54) scale(1,1)"><g><path fill="none" stroke="none"/><text fill="#000000" stroke="none" font-family="Arial" font-size="13px" font-style="normal" font-weight="bold" text-decoration="none" x="207.71826171875" y="83.5">Jeu MAUJA adventures</text></g></g><g transform="translate(-6,-54) scale(1,1)"><path fill="#ffffff" stroke="none" d="M 33.49162571022727 425.68 C 33.49162571022727 420.886167936 37.377468035172726 417 42.1708984375 417 C 46.964328839827274 417 50.85017116477273 420.886167936 50.85017116477273 425.68 C 50.85017116477273 430.473832064 46.964328839827274 434.36 42.1708984375 434.36 C 37.377468035172726 434.36 33.49162571022727 430.473832064 33.49162571022727 425.68 Z"/></g><g transform="translate(-6,-54) scale(1,1)"><path fill="none" stroke="#000000" d="M 33.49162571022727 425.68 C 33.49162571022727 420.886167936 37.377468035172726 417 42.1708984375 417 C 46.964328839827274 417 50.85017116477273 420.886167936 50.85017116477273 425.68 C 50.85017116477273 430.473832064 46.964328839827274 434.36 42.1708984375 434.36 C 37.377468035172726 434.36 33.49162571022727 430.473832064 33.49162571022727 425.68 Z" stroke-miterlimit="10"/></g><g transform="translate(-6,-54) scale(1,1)"><path fill="none" stroke="#000000" d="M 42.1708984375 434.36 L 42.1708984375 451.64" stroke-miterlimit="10"/></g><g transform="translate(-6,-54) scale(1,1)"><path fill="none" stroke="#000000" d="M 32.98108025568182 440.84 L 51.36071661931818 440.84" stroke-miterlimit="10"/></g><g transform="translate(-6,-54) scale(1,1)"><path fill="none" stroke="#000000" d="M 42.1708984375 451.64 L 29.407262073863635 469" stroke-miterlimit="10"/></g><g transform="translate(-6,-54) scale(1,1)"><path fill="none" stroke="#000000" d="M 42.1708984375 451.64 L 54.934534801136365 469" stroke-miterlimit="10"/></g><g transform="translate(-6,-54) scale(1,1)"><g><path fill="none" stroke="none"/><text fill="#000000" stroke="none" font-family="Arial" font-size="13px" font-style="normal" font-weight="bold" text-decoration="none" x="22.29638671875" y="489.5">Joueur</text></g></g><g transform="translate(-6,-54) scale(1,1)"><path fill="#C0C0C0" stroke="none" d="M 191 826.5 C 191 806.8938896 226.817216 791 271 791 C 315.18278399999997 791 351 806.8938896 351 826.5 C 351 846.1061104 315.18278399999997 862 271 862 C 226.817216 862 191 846.1061104 191 826.5 Z" opacity="0.2"/></g><g transform="translate(-6,-54) scale(1,1)"><path fill="#ffffff" stroke="none" d="M 184 819.5 C 184 799.8938896 219.817216 784 264 784 C 308.18278399999997 784 344 799.8938896 344 819.5 C 344 839.1061104 308.18278399999997 855 264 855 C 219.817216 855 184 839.1061104 184 819.5 Z"/></g><g transform="translate(-6,-54) scale(1,1)"><path fill="none" stroke="#000000" d="M 184 819.5 C 184 799.8938896 219.817216 784 264 784 C 308.18278399999997 784 344 799.8938896 344 819.5 C 344 839.1061104 308.18278399999997 855 264 855 C 219.817216 855 184 839.1061104 184 819.5 Z" stroke-miterlimit="10"/></g><g transform="translate(-6,-54) scale(1,1)"><g><path fill="none" stroke="none"/><text fill="#000000" stroke="none" font-family="Arial" font-size="13px" font-style="normal" font-weight="bold" text-decoration="none" x="238.70458984375" y="813.5">Jouer en</text><text fill="#000000" stroke="none" font-family="Arial" font-size="13px" font-style="normal" font-weight="bold" text-decoration="none" x="220.99462890625" y="826.5">coopération en</text><text fill="#000000" stroke="none" font-family="Arial" font-size="13px" font-style="normal" font-weight="bold" text-decoration="none" x="244.12548828125" y="839.5">réseau</text></g></g><g transform="translate(-6,-54) scale(1,1)"><path fill="none" stroke="#000000" d="M 44 496 L 56 768 L 183 799" stroke-miterlimit="10"/></g><g transform="translate(-6,-54) scale(1,1)"><path fill="#C0C0C0" stroke="none" d="M 207 161 C 207 146.6405952 239.0116368 135 278.5 135 C 317.9883632 135 350 146.6405952 350 161 C 350 175.3594048 317.9883632 187 278.5 187 C 239.0116368 187 207 175.3594048 207 161 Z" opacity="0.2"/></g><g transform="translate(-6,-54) scale(1,1)"><path fill="#ffffff" stroke="none" d="M 200 154 C 200 139.6405952 232.0116368 128 271.5 128 C 310.9883632 128 343 139.6405952 343 154 C 343 168.3594048 310.9883632 180 271.5 180 C 232.0116368 180 200 168.3594048 200 154 Z"/></g><g transform="translate(-6,-54) scale(1,1)"><path fill="none" stroke="#000000" d="M 200 154 C 200 139.6405952 232.0116368 128 271.5 128 C 310.9883632 128 343 139.6405952 343 154 C 343 168.3594048 310.9883632 180 271.5 180 C 232.0116368 180 200 168.3594048 200 154 Z" stroke-miterlimit="10"/></g><g transform="translate(-6,-54) scale(1,1)"><g><path fill="none" stroke="none"/><text fill="#000000" stroke="none" font-family="Arial" font-size="13px" font-style="normal" font-weight="bold" text-decoration="none" x="231.030517578125" y="154.5">Résoudre des</text><text fill="#000000" stroke="none" font-family="Arial" font-size="13px" font-style="normal" font-weight="bold" text-decoration="none" x="246.931396484375" y="167.5">enigmes</text></g></g><g transform="translate(-6,-54) scale(1,1)"><path fill="none" stroke="#000000" d="M 51 415 L 88 248 L 218 181" stroke-miterlimit="10"/></g><g transform="translate(-6,-54) scale(1,1)"><path fill="#C0C0C0" stroke="none" d="M 178 278.5 C 178 258.8938896 222.77152 243 278 243 C 333.22848 243 378 258.8938896 378 278.5 C 378 298.1061104 333.22848 314 278 314 C 222.77152 314 178 298.1061104 178 278.5 Z" opacity="0.2"/></g><g transform="translate(-6,-54) scale(1,1)"><path fill="#ffffff" stroke="none" d="M 171 271.5 C 171 251.8938896 215.77152 236 271 236 C 326.22848 236 371 251.8938896 371 271.5 C 371 291.1061104 326.22848 307 271 307 C 215.77152 307 171 291.1061104 171 271.5 Z"/></g><g transform="translate(-6,-54) scale(1,1)"><path fill="none" stroke="#000000" d="M 171 271.5 C 171 251.8938896 215.77152 236 271 236 C 326.22848 236 371 251.8938896 371 271.5 C 371 291.1061104 326.22848 307 271 307 C 215.77152 307 171 291.1061104 171 271.5 Z" stroke-miterlimit="10"/></g><g transform="translate(-6,-54) scale(1,1)"><g><path fill="none" stroke="none"/><text fill="#000000" stroke="none" font-family="Arial" font-size="13px" font-style="normal" font-weight="bold" text-decoration="none" x="231.98095703125" y="265.5">interagir avec</text><text fill="#000000" stroke="none" font-family="Arial" font-size="13px" font-style="normal" font-weight="bold" text-decoration="none" x="216.280029296875" y="278.5">l'environnement du</text><text fill="#000000" stroke="none" font-family="Arial" font-size="13px" font-style="normal" font-weight="bold" text-decoration="none" x="262.325927734375" y="291.5">jeu</text></g></g><g transform="translate(-6,-54) scale(1,1)"><path fill="none" stroke="#000000" d="M 271 181 L 271 235" stroke-miterlimit="10" stroke-dasharray="3"/></g><g transform="translate(-6,-54) scale(1,1)"><path fill="none" stroke="#000000" d="M 266.790482243984 224.83732514237585 L 271 235 L 275.209517756016 224.83732514237585" stroke-miterlimit="10"/></g><g transform="translate(-6,-54) scale(1,1)"><g><path fill="none" stroke="none"/><text fill="#000000" stroke="none" font-family="Arial" font-size="13px" font-style="normal" font-weight="normal" text-decoration="none" x="286.5" y="220.5">«include»</text></g></g><g transform="translate(-6,-54) scale(1,1)"><path fill="none" stroke="#000000" d="M 65 415 L 96 360 L 198 308" stroke-miterlimit="10"/></g><g transform="translate(-6,-54) scale(1,1)"><path fill="#C0C0C0" stroke="none" d="M 182 504 C 182 489.6405952 224.9806592 478 278 478 C 331.0193408 478 374 489.6405952 374 504 C 374 518.3594048 331.0193408 530 278 530 C 224.9806592 530 182 518.3594048 182 504 Z" opacity="0.2"/></g><g transform="translate(-6,-54) scale(1,1)"><path fill="#ffffff" stroke="none" d="M 175 497 C 175 482.6405952 217.9806592 471 271 471 C 324.0193408 471 367 482.6405952 367 497 C 367 511.3594048 324.0193408 523 271 523 C 217.9806592 523 175 511.3594048 175 497 Z"/></g><g transform="translate(-6,-54) scale(1,1)"><path fill="none" stroke="#000000" d="M 175 497 C 175 482.6405952 217.9806592 471 271 471 C 324.0193408 471 367 482.6405952 367 497 C 367 511.3594048 324.0193408 523 271 523 C 217.9806592 523 175 511.3594048 175 497 Z" stroke-miterlimit="10"/></g><g transform="translate(-6,-54) scale(1,1)"><g><path fill="none" stroke="none"/><text fill="#000000" stroke="none" font-family="Arial" font-size="13px" font-style="normal" font-weight="bold" text-decoration="none" x="236.681396484375" y="497.5">Explorer les</text><text fill="#000000" stroke="none" font-family="Arial" font-size="13px" font-style="normal" font-weight="bold" text-decoration="none" x="221.259765625" y="510.5">différentes cartes</text></g></g><g transform="translate(-6,-54) scale(1,1)"><path fill="none" stroke="#000000" d="M 66 496 L 80 520 L 174 509" stroke-miterlimit="10"/></g><g transform="translate(-6,-54) scale(1,1)"><path fill="#ffffff" stroke="none" d="M 518.8207272727273 409.68 C 518.8207272727273 404.886167936 522.7065695976727 401 527.5 401 C 532.2934304023273 401 536.1792727272727 404.886167936 536.1792727272727 409.68 C 536.1792727272727 414.473832064 532.2934304023273 418.36 527.5 418.36 C 522.7065695976727 418.36 518.8207272727273 414.473832064 518.8207272727273 409.68 Z"/></g><g transform="translate(-6,-54) scale(1,1)"><path fill="none" stroke="#000000" d="M 518.8207272727273 409.68 C 518.8207272727273 404.886167936 522.7065695976727 401 527.5 401 C 532.2934304023273 401 536.1792727272727 404.886167936 536.1792727272727 409.68 C 536.1792727272727 414.473832064 532.2934304023273 418.36 527.5 418.36 C 522.7065695976727 418.36 518.8207272727273 414.473832064 518.8207272727273 409.68 Z" stroke-miterlimit="10"/></g><g transform="translate(-6,-54) scale(1,1)"><path fill="none" stroke="#000000" d="M 527.5 418.36 L 527.5 435.64" stroke-miterlimit="10"/></g><g transform="translate(-6,-54) scale(1,1)"><path fill="none" stroke="#000000" d="M 518.3101818181818 424.84 L 536.6898181818182 424.84" stroke-miterlimit="10"/></g><g transform="translate(-6,-54) scale(1,1)"><path fill="none" stroke="#000000" d="M 527.5 435.64 L 514.7363636363636 453" stroke-miterlimit="10"/></g><g transform="translate(-6,-54) scale(1,1)"><path fill="none" stroke="#000000" d="M 527.5 435.64 L 540.2636363636364 453" stroke-miterlimit="10"/></g><g transform="translate(-6,-54) scale(1,1)"><g><path fill="none" stroke="none"/><text fill="#000000" stroke="none" font-family="Arial" font-size="13px" font-style="normal" font-weight="bold" text-decoration="none" x="505.825927734375" y="473.5">serveur</text></g></g><g transform="translate(-6,-54) scale(1,1)"><path fill="#C0C0C0" stroke="none" d="M 202 405.5 C 202 385.8938896 236.0263552 370 278 370 C 319.9736448 370 354 385.8938896 354 405.5 C 354 425.1061104 319.9736448 441 278 441 C 236.0263552 441 202 425.1061104 202 405.5 Z" opacity="0.2"/></g><g transform="translate(-6,-54) scale(1,1)"><path fill="#ffffff" stroke="none" d="M 195 398.5 C 195 378.8938896 229.0263552 363 271 363 C 312.9736448 363 347 378.8938896 347 398.5 C 347 418.1061104 312.9736448 434 271 434 C 229.0263552 434 195 418.1061104 195 398.5 Z"/></g><g transform="translate(-6,-54) scale(1,1)"><path fill="none" stroke="#000000" d="M 195 398.5 C 195 378.8938896 229.0263552 363 271 363 C 312.9736448 363 347 378.8938896 347 398.5 C 347 418.1061104 312.9736448 434 271 434 C 229.0263552 434 195 418.1061104 195 398.5 Z" stroke-miterlimit="10"/></g><g transform="translate(-6,-54) scale(1,1)"><g><path fill="none" stroke="none"/><text fill="#000000" stroke="none" font-family="Arial" font-size="13px" font-style="normal" font-weight="bold" text-decoration="none" x="243.911376953125" y="392.5">Utiliser et</text><text fill="#000000" stroke="none" font-family="Arial" font-size="13px" font-style="normal" font-weight="bold" text-decoration="none" x="234.510498046875" y="405.5">collecter des</text><text fill="#000000" stroke="none" font-family="Arial" font-size="13px" font-style="normal" font-weight="bold" text-decoration="none" x="253.655029296875" y="418.5">objets</text></g></g><g transform="translate(-6,-54) scale(1,1)"><path fill="none" stroke="#000000" d="M 69 456 L 96 456 L 194 424" stroke-miterlimit="10"/></g><g transform="translate(-6,-54) scale(1,1)"><path fill="#C0C0C0" stroke="none" d="M 207 601 C 207 586.6405952 239.2354944 575 279 575 C 318.7645056 575 351 586.6405952 351 601 C 351 615.3594048 318.7645056 627 279 627 C 239.2354944 627 207 615.3594048 207 601 Z" opacity="0.2"/></g><g transform="translate(-6,-54) scale(1,1)"><path fill="#ffffff" stroke="none" d="M 200 594 C 200 579.6405952 232.2354944 568 272 568 C 311.7645056 568 344 579.6405952 344 594 C 344 608.3594048 311.7645056 620 272 620 C 232.2354944 620 200 608.3594048 200 594 Z"/></g><g transform="translate(-6,-54) scale(1,1)"><path fill="none" stroke="#000000" d="M 200 594 C 200 579.6405952 232.2354944 568 272 568 C 311.7645056 568 344 579.6405952 344 594 C 344 608.3594048 311.7645056 620 272 620 C 232.2354944 620 200 608.3594048 200 594 Z" stroke-miterlimit="10"/></g><g transform="translate(-6,-54) scale(1,1)"><g><path fill="none" stroke="none"/><text fill="#000000" stroke="none" font-family="Arial" font-size="13px" font-style="normal" font-weight="bold" text-decoration="none" x="241.655029296875" y="594.5">Combattre</text><text fill="#000000" stroke="none" font-family="Arial" font-size="13px" font-style="normal" font-weight="bold" text-decoration="none" x="232.984130859375" y="607.5">des monstres</text></g></g><g transform="translate(-6,-54) scale(1,1)"><path fill="none" stroke="#000000" d="M 199 585 L 72 568 L 53 496" stroke-miterlimit="10"/></g><g transform="translate(-6,-54) scale(1,1)"><path fill="#C0C0C0" stroke="none" d="M 183 706.5 C 183 686.8938896 224.1897984 671 275 671 C 325.8102016 671 367 686.8938896 367 706.5 C 367 726.1061104 325.8102016 742 275 742 C 224.1897984 742 183 726.1061104 183 706.5 Z" opacity="0.2"/></g><g transform="translate(-6,-54) scale(1,1)"><path fill="#ffffff" stroke="none" d="M 176 699.5 C 176 679.8938896 217.1897984 664 268 664 C 318.8102016 664 360 679.8938896 360 699.5 C 360 719.1061104 318.8102016 735 268 735 C 217.1897984 735 176 719.1061104 176 699.5 Z"/></g><g transform="translate(-6,-54) scale(1,1)"><path fill="none" stroke="#000000" d="M 176 699.5 C 176 679.8938896 217.1897984 664 268 664 C 318.8102016 664 360 679.8938896 360 699.5 C 360 719.1061104 318.8102016 735 268 735 C 217.1897984 735 176 719.1061104 176 699.5 Z" stroke-miterlimit="10"/></g><g transform="translate(-6,-54) scale(1,1)"><g><path fill="none" stroke="none"/><text fill="#000000" stroke="none" font-family="Arial" font-size="13px" font-style="normal" font-weight="bold" text-decoration="none" x="250.661376953125" y="693.5">Parler</text><text fill="#000000" stroke="none" font-family="Arial" font-size="13px" font-style="normal" font-weight="bold" text-decoration="none" x="217.0537109375" y="706.5">textuellement aux</text><text fill="#000000" stroke="none" font-family="Arial" font-size="13px" font-style="normal" font-weight="bold" text-decoration="none" x="226.81005859375" y="719.5">autres joueurs</text></g></g><g transform="translate(-6,-54) scale(1,1)"><rect fill="#C0C0C0" stroke="none" x="879" y="327" width="34.231250000000045" height="15" opacity="0.2"/></g><g transform="translate(-6,-54) scale(1,1)"><rect fill="#C0C0C0" stroke="none" x="879" y="341" width="85.578125" height="25" opacity="0.2"/></g><g transform="translate(-6,-54) scale(1,1)"><rect fill="#ffffff" stroke="none" x="872" y="335" width="85.578125" height="24"/></g><g transform="translate(-6,-54) scale(1,1)"><path fill="none" stroke="#000000" d="M 872 335 L 957.578125 335 L 957.578125 359 L 872 359 L 872 335 Z Z" stroke-miterlimit="10"/></g><g transform="translate(-6,-54) scale(1,1)"><rect fill="#ffffff" stroke="none" x="872" y="320" width="34.231250000000045" height="15"/></g><g transform="translate(-6,-54) scale(1,1)"><path fill="none" stroke="#000000" d="M 872 320 L 906.23125 320 L 906.23125 335 L 872 335 L 872 320 Z Z" stroke-miterlimit="10"/></g><g transform="translate(-6,-54) scale(1,1)"><rect fill="#ffffff" stroke="none" x="872" y="334" width="85.578125" height="25"/></g><g transform="translate(-6,-54) scale(1,1)"><path fill="none" stroke="#000000" d="M 872 334 L 957.578125 334 L 957.578125 359 L 872 359 L 872 334 Z Z" stroke-miterlimit="10"/></g><g transform="translate(-6,-54) scale(1,1)"><g><path fill="none" stroke="none"/><text fill="#000000" stroke="none" font-family="Arial" font-size="13px" font-style="normal" font-weight="bold" text-decoration="none" x="879.013671875" y="354.5">Jouer au jeu</text></g></g><g transform="translate(-6,-54) scale(1,1)"><path fill="#ffffff" stroke="none" d="M 729.4916257102273 313.68 C 729.4916257102273 308.886167936 733.3774680351727 305 738.1708984375 305 C 742.9643288398273 305 746.8501711647727 308.886167936 746.8501711647727 313.68 C 746.8501711647727 318.473832064 742.9643288398273 322.36 738.1708984375 322.36 C 733.3774680351727 322.36 729.4916257102273 318.473832064 729.4916257102273 313.68 Z"/></g><g transform="translate(-6,-54) scale(1,1)"><path fill="none" stroke="#000000" d="M 729.4916257102273 313.68 C 729.4916257102273 308.886167936 733.3774680351727 305 738.1708984375 305 C 742.9643288398273 305 746.8501711647727 308.886167936 746.8501711647727 313.68 C 746.8501711647727 318.473832064 742.9643288398273 322.36 738.1708984375 322.36 C 733.3774680351727 322.36 729.4916257102273 318.473832064 729.4916257102273 313.68 Z" stroke-miterlimit="10"/></g><g transform="translate(-6,-54) scale(1,1)"><path fill="none" stroke="#000000" d="M 738.1708984375 322.36 L 738.1708984375 339.64" stroke-miterlimit="10"/></g><g transform="translate(-6,-54) scale(1,1)"><path fill="none" stroke="#000000" d="M 728.9810802556818 328.84 L 747.3607166193182 328.84" stroke-miterlimit="10"/></g><g transform="translate(-6,-54) scale(1,1)"><path fill="none" stroke="#000000" d="M 738.1708984375 339.64 L 725.4072620738636 357" stroke-miterlimit="10"/></g><g transform="translate(-6,-54) scale(1,1)"><path fill="none" stroke="#000000" d="M 738.1708984375 339.64 L 750.9345348011364 357" stroke-miterlimit="10"/></g><g transform="translate(-6,-54) scale(1,1)"><g><path fill="none" stroke="none"/><text fill="#000000" stroke="none" font-family="Arial" font-size="13px" font-style="normal" font-weight="bold" text-decoration="none" x="718.29638671875" y="377.5">Joueur</text></g></g><g transform="translate(-6,-54) scale(1,1)"><path fill="#ffffff" stroke="none" d="M 584 152 L 654.892578125 152 L 664.892578125 162 L 664.892578125 201 L 584 201 L 584 152"/></g><g transform="translate(-6,-54) scale(1,1)"><path fill="none" stroke="#000000" d="M 584 152 L 654.892578125 152 L 664.892578125 162 L 664.892578125 201 L 584 201 L 584 152 L 584 152" stroke-miterlimit="10"/></g><g transform="translate(-6,-54) scale(1,1)"><path fill="none" stroke="#000000" d="M 654.892578125 152 L 654.892578125 162 L 664.892578125 162 L 654.892578125 152" stroke-miterlimit="10"/></g><g transform="translate(-6,-54) scale(1,1)"><g><path fill="none" stroke="none"/><text fill="#000000" stroke="none" font-family="Arial" font-size="13px" font-style="normal" font-weight="normal" text-decoration="none" x="589" y="170">Paquetage</text><text fill="#000000" stroke="none" font-family="Arial" font-size="13px" font-style="normal" font-weight="normal" text-decoration="none" x="589" y="183">Jouer au jeu</text></g></g><g transform="translate(-6,-54) scale(1,1)"><path fill="none" stroke="#000000" d="M 593 203 L 417 350" stroke-miterlimit="10" stroke-dasharray="3"/></g><g transform="translate(-6,-54) scale(1,1)"><path fill="none" stroke="#000000" d="M 175 682 L 72 664 L 48 496" stroke-miterlimit="10"/></g><g transform="translate(-6,-54) scale(1,1)"><path fill="none" stroke="#000000" d="M 361 664 L 448 632 L 510 480" stroke-miterlimit="10"/></g><g transform="translate(-6,-54) scale(1,1)"><path fill="none" stroke="#000000" d="M 345 798 L 488 760 L 522 480" stroke-miterlimit="10"/></g><g transform="translate(-6,-54) scale(1,1)"><path fill="none" stroke="#000000" d="M 765 342 L 871 340" stroke-miterlimit="10" stroke-dasharray="3"/></g><g transform="translate(-6,-54) scale(1,1)"><path fill="none" stroke="#000000" d="M 860.9185443379461 344.4004831250717 L 871 340 L 860.759722878895 335.9829457953653" stroke-miterlimit="10"/></g><g transform="translate(-6,-54) scale(1,1)"><path fill="none" stroke="#000000" d="M 871 340 L 765 342" stroke-miterlimit="10" stroke-dasharray="3"/></g><g transform="translate(-6,-54) scale(1,1)"><path fill="none" stroke="#000000" d="M 775.0814556620539 337.5995168749283 L 765 342 L 775.240277121105 346.0170542046347" stroke-miterlimit="10"/></g><g transform="translate(-6,-54) scale(1,1)"><path fill="none" stroke="#000000" d="M 271 308 L 271 362" stroke-miterlimit="10" stroke-dasharray="3"/></g><g transform="translate(-6,-54) scale(1,1)"><path fill="none" stroke="#000000" d="M 266.790482243984 351.83732514237585 L 271 362 L 275.209517756016 351.83732514237585" stroke-miterlimit="10"/></g><g transform="translate(-6,-54) scale(1,1)"><g><path fill="none" stroke="none"/><text fill="#000000" stroke="none" font-family="Arial" font-size="13px" font-style="normal" font-weight="normal" text-decoration="none" x="273.5" y="340.5">«extend»</text></g></g><g transform="translate(-6,-54) scale(1,1)"><path fill="none" stroke="#000000" d="M 267 736 L 265 783" stroke-miterlimit="10" stroke-dasharray="3"/></g><g transform="translate(-6,-54) scale(1,1)"><path fill="none" stroke="#000000" d="M 261.2263515604047 772.6675473650087 L 265 783 L 269.63777492303933 773.0254802740569" stroke-miterlimit="10"/></g><g transform="translate(-6,-54) scale(1,1)"><g><path fill="none" stroke="none"/><text fill="#000000" stroke="none" font-family="Arial" font-size="13px" font-style="normal" font-weight="normal" text-decoration="none" x="268.5" y="766.5">«extend»</text></g></g><g transform="translate(-6,-54) scale(1,1)"><path fill="#ffffff" stroke="none" d="M 768 136 L 893 136 L 903 146 L 903 207 L 768 207 L 768 136"/></g><g transform="translate(-6,-54) scale(1,1)"><path fill="none" stroke="#000000" d="M 768 136 L 893 136 L 903 146 L 903 207 L 768 207 L 768 136 L 768 136" stroke-miterlimit="10"/></g><g transform="translate(-6,-54) scale(1,1)"><path fill="none" stroke="#000000" d="M 893 136 L 893 146 L 903 146 L 893 136" stroke-miterlimit="10"/></g><g transform="translate(-6,-54) scale(1,1)"><g><path fill="none" stroke="none"/><text fill="#000000" stroke="none" font-family="Arial" font-size="13px" font-style="normal" font-weight="normal" text-decoration="none" x="773" y="154">Un cas d'utilisation</text><text fill="#000000" stroke="none" font-family="Arial" font-size="13px" font-style="normal" font-weight="normal" text-decoration="none" x="773" y="167">fondamental : jouer.</text><text fill="#000000" stroke="none" font-family="Arial" font-size="13px" font-style="normal" font-weight="normal" text-decoration="none" x="773" y="180">Mais on peut le</text><text fill="#000000" stroke="none" font-family="Arial" font-size="13px" font-style="normal" font-weight="normal" text-decoration="none" x="773" y="193">décomposer.</text></g></g><g transform="translate(-6,-54) scale(1,1)"><path fill="none" stroke="#000000" d="M 832 209 L 818 341" stroke-miterlimit="10" stroke-dasharray="3"/></g></g></svg>